<?xml version="1.0" encoding="utf-8"?>
<!-- Generator: Adobe Illustrator 24.3.0, SVG Export Plug-In . SVG Version: 6.00 Build 0)  -->
<svg version="1.1" id="Warstwa_1" xmlns="http://www.w3.org/2000/svg" xmlns:xlink="http://www.w3.org/1999/xlink" x="0px" y="0px"
	 viewBox="0 0 103 80" style="enable-background:new 0 0 103 80;" xml:space="preserve">
<style type="text/css">
	.st0{fill:url(#SVGID_1_);}
	.st1{fill:url(#SVGID_2_);}
	.st2{fill:url(#SVGID_3_);}
	.st3{fill:url(#SVGID_4_);}
	.st4{fill:#BA7F3B;}
	.st5{fill:#020219;}
</style>
<g>
	<g>
		<linearGradient id="SVGID_1_" gradientUnits="userSpaceOnUse" x1="71.6792" y1="31.9387" x2="34.7731" y2="31.9387">
			<stop  offset="0" style="stop-color:#D1944A"/>
			<stop  offset="1" style="stop-color:#A3692B"/>
		</linearGradient>
		<polygon class="st0" points="34.41,23.4 34.41,40.48 38.99,40.48 38.99,29.21 		"/>
		<g>
			<linearGradient id="SVGID_2_" gradientUnits="userSpaceOnUse" x1="71.6792" y1="20.2387" x2="34.7731" y2="20.2387">
				<stop  offset="0" style="stop-color:#D1944A"/>
				<stop  offset="1" style="stop-color:#A3692B"/>
			</linearGradient>
			<polygon class="st1" points="67.48,0 53.07,18.16 38.66,0 34.41,0 34.41,6.25 38.99,12.06 38.99,7.54 53.07,25.38 67.14,7.54 
				67.14,40.48 71.72,40.48 71.72,0 			"/>
		</g>
		<linearGradient id="SVGID_3_" gradientUnits="userSpaceOnUse" x1="21.9784" y1="21.0706" x2="84.6783" y2="21.0706">
			<stop  offset="0" style="stop-color:#D1944A"/>
			<stop  offset="1" style="stop-color:#A3692B"/>
		</linearGradient>
		<polygon class="st2" points="64.09,20.92 53.07,34.91 25.56,0 21.32,0 21.32,40.48 25.9,40.48 25.9,7.71 53.07,42.14 64.09,28.18 
					"/>
		<linearGradient id="SVGID_4_" gradientUnits="userSpaceOnUse" x1="21.9784" y1="20.2387" x2="84.6783" y2="20.2387">
			<stop  offset="0" style="stop-color:#D1944A"/>
			<stop  offset="1" style="stop-color:#A3692B"/>
		</linearGradient>
		<polygon class="st3" points="80.57,0 74.78,7.35 74.78,14.63 80.23,7.71 80.23,40.48 84.82,40.48 84.82,0 		"/>
	</g>
	<g>
		<path class="st4" d="M7.62,79.06l0.79-1.77c0.76,0.5,1.83,0.84,2.81,0.84c1,0,1.39-0.28,1.39-0.69c0-1.35-4.84-0.36-4.84-3.52
			c0-1.52,1.24-2.76,3.77-2.76c1.11,0,2.25,0.26,3.09,0.74l-0.74,1.78c-0.82-0.44-1.62-0.66-2.36-0.66c-1.01,0-1.38,0.34-1.38,0.76
			c0,1.3,4.83,0.33,4.83,3.46c0,1.48-1.24,2.74-3.77,2.74C9.81,80,8.42,79.62,7.62,79.06z"/>
		<path class="st4" d="M20.46,73.24h-2.62v-1.91h7.63v1.91h-2.6v6.59h-2.41V73.24z"/>
		<path class="st4" d="M33.73,78.18h-3.6l-0.67,1.65H27l3.76-8.5h2.37l3.77,8.5H34.4L33.73,78.18z M33.03,76.41l-1.1-2.72l-1.1,2.72
			H33.03z"/>
		<path class="st4" d="M40.14,71.33h2.41v6.59h4.07v1.91h-6.48V71.33z"/>
		<path class="st4" d="M49.98,71.33h2.41v6.59h4.07v1.91h-6.47V71.33z"/>
		<path class="st4" d="M59.82,71.33h2.41v8.5h-2.41V71.33z"/>
		<path class="st4" d="M66.03,75.58c0-2.55,2.01-4.42,4.73-4.42c2.73,0,4.73,1.87,4.73,4.42c0,2.55-2.01,4.42-4.73,4.42
			C68.04,80,66.03,78.13,66.03,75.58z M73.06,75.58c0-1.47-1.01-2.43-2.3-2.43c-1.29,0-2.3,0.96-2.3,2.43s1.01,2.43,2.3,2.43
			C72.05,78.01,73.06,77.05,73.06,75.58z"/>
		<path class="st4" d="M87.41,71.33v8.5h-1.98l-3.76-4.53v4.53H79.3v-8.5h1.98l3.76,4.53v-4.53H87.41z"/>
		<path class="st4" d="M91.16,79.06l0.79-1.77c0.76,0.5,1.83,0.84,2.81,0.84c1,0,1.39-0.28,1.39-0.69c0-1.35-4.84-0.36-4.84-3.52
			c0-1.52,1.24-2.76,3.77-2.76c1.11,0,2.25,0.26,3.09,0.74l-0.74,1.78c-0.82-0.44-1.62-0.66-2.36-0.66c-1.01,0-1.38,0.34-1.38,0.76
			c0,1.3,4.83,0.33,4.83,3.46c0,1.48-1.24,2.74-3.77,2.74C93.35,80,91.96,79.62,91.16,79.06z"/>
	</g>
	<g>
		<path class="st5" d="M19.33,49.58h3.94v16.99h-3.94V49.58z"/>
		<path class="st5" d="M61.68,49.58v16.99h-3.94v-6.97H50v6.97h-3.94V49.58H50v6.7h7.74v-6.7H61.68z"/>
		<path class="st5" d="M65.21,58.08c0-5.05,3.94-8.79,9.32-8.79c5.35,0,9.32,3.71,9.32,8.79s-3.97,8.79-9.32,8.79
			C69.15,66.87,65.21,63.13,65.21,58.08z M79.86,58.08c0-3.23-2.29-5.44-5.33-5.44c-3.04,0-5.33,2.21-5.33,5.44s2.29,5.44,5.33,5.44
			C77.57,63.52,79.86,61.31,79.86,58.08z"/>
		<path class="st5" d="M103,49.58v16.99h-3.24l-8.49-10.32v10.32h-3.89V49.58h3.26l8.47,10.32V49.58H103z M95.94,48.76h-2.97
			l3.29-3.5h4.09L95.94,48.76z"/>
		<path class="st5" d="M13.57,61.67c-1.12,1.22-2.5,1.85-4.13,1.85c-3.19,0-5.45-2.23-5.45-5.44s2.26-5.44,5.45-5.44
			c1.63,0,3.02,0.63,4.14,1.84l2.64-2.21c-1.61-1.92-4.05-2.98-6.98-2.98C3.94,49.29,0,52.96,0,58.08s3.94,8.79,9.22,8.79
			c2.94,0,5.38-1.05,6.99-2.99L13.57,61.67z"/>
		<path class="st5" d="M40.36,61.67c-1.12,1.22-2.5,1.85-4.13,1.85c-3.19,0-5.45-2.23-5.45-5.44s2.26-5.44,5.45-5.44
			c1.63,0,3.02,0.63,4.14,1.84l2.64-2.21c-1.61-1.92-4.05-2.98-6.98-2.98c-5.31,0-9.25,3.67-9.25,8.79s3.94,8.79,9.22,8.79
			c2.94,0,5.38-1.05,6.99-2.99L40.36,61.67z"/>
	</g>
</g>
</svg>
